<?xml version="1.0" encoding="utf-8"?>
<!-- Generator: Adobe Illustrator 17.0.0, SVG Export Plug-In . SVG Version: 6.00 Build 0)  -->
<!DOCTYPE svg PUBLIC "-//W3C//DTD SVG 1.1//EN" "http://www.w3.org/Graphics/SVG/1.1/DTD/svg11.dtd">
<svg version="1.1" id="Layer_1" xmlns="http://www.w3.org/2000/svg" xmlns:xlink="http://www.w3.org/1999/xlink" x="0px" y="0px"
	 width="40px" height="40px" viewBox="0 0 40 40" enable-background="new 0 0 40 40" xml:space="preserve">
<g>
	<path id="Blue_1_" fill="#3D5A98" d="M36.059,38.051c1.1,0,1.993-0.892,1.993-1.993V3.941c0-1.101-0.892-1.993-1.993-1.993H3.941
		c-1.101,0-1.993,0.892-1.993,1.993v32.118c0,1.1,0.892,1.993,1.993,1.993H36.059z"/>
	<path id="f" fill="#FFFFFF" d="M26.859,38.051V24.071h4.693l0.703-5.449h-5.395v-3.479c0-1.578,0.438-2.653,2.7-2.653l2.885-0.001
		V7.616c-0.499-0.066-2.212-0.215-4.204-0.215c-4.16,0-7.008,2.539-7.008,7.202v4.018h-4.705v5.449h4.705v13.981H26.859z"/>
</g>
</svg>
