<svg xmlns="http://www.w3.org/2000/svg" viewBox="0 0 438.54 438.54"><path d="M158.17 352.6c-3.05.57-4.38 2-4 4.28.38 2.28 2.1 3.05 5.14 2.28 3.1-.76 4.4-2.1 4-4-.3-2.1-2-2.94-5.1-2.56zm-16.27 2.3c-3.05 0-4.57 1.03-4.57 3.12 0 2.48 1.62 3.52 4.85 3.14 3.05 0 4.57-1.05 4.57-3.14 0-2.47-1.62-3.52-4.85-3.13zm-22.27-.88c-.76 2.1.48 3.52 3.7 4.3 2.87 1.12 4.67.55 5.43-1.73.58-2.1-.66-3.7-3.7-4.6-2.86-.8-4.67-.1-5.43 2z"/><path d="M414.4 24.12C398.34 8.04 378.97 0 356.3 0H82.23c-22.64 0-42 8.04-58.1 24.12C8.03 40.22 0 59.58 0 82.22v274.1c0 22.64 8.04 42 24.12 58.1 16.1 16.07 35.46 24.12 58.1 24.12h63.96c4.18 0 7.32-.15 9.42-.43 2.1-.2 4.18-1.5 6.28-3.7 2.1-2.2 3.14-5.3 3.14-9.5l-.15-19.4c-.1-12.4-.14-22.2-.14-29.4l-6.57 1.2c-4.2.77-9.47 1.1-15.84 1-6.38-.1-13-.75-19.85-2-6.85-1.23-13.22-4.1-19.13-8.55-5.9-4.5-10.08-10.33-12.56-17.56l-2.85-6.57c-1.9-4.36-4.9-9.22-9-14.55s-8.23-9-12.4-10.9l-2-1.42c-1.34-.95-2.58-2.1-3.72-3.42-1.1-1.32-2-2.65-2.5-4-.5-1.32-.1-2.4 1.5-3.3 1.5-.82 4.3-1.25 8.3-1.25l5.7.84c3.8.74 8.53 3.02 14.15 6.83 5.6 3.8 10.24 8.74 13.85 14.83 4.36 7.8 9.64 13.74 15.83 17.83 6.17 4.1 12.4 6.15 18.7 6.15s11.7-.4 16.26-1.4 8.83-2.4 12.83-4.3c1.7-12.7 6.4-22.5 14-29.4-10.85-1.1-20.6-2.8-29.27-5.1s-17.6-6-26.84-11.12c-9.27-5.14-16.9-11.5-23-19.13-6.1-7.6-11.1-17.6-15-29.97-3.9-12.37-5.86-26.65-5.86-42.83 0-23.04 7.54-42.65 22.57-58.8-7-17.34-6.35-36.75 2-58.26 5.55-1.72 13.7-.43 24.58 3.85 10.85 4.3 18.8 7.92 23.84 11 5.04 3 9.1 5.6 12.13 7.7 17.7-4.98 35.96-7.45 54.8-7.45 18.85 0 37.1 2.5 54.83 7.45l10.8-6.85c7.4-4.6 16.17-8.8 26.25-12.6 10.1-3.8 17.8-4.85 23.1-3.13 8.6 21.5 9.36 40.9 2.3 58.23 15.06 16.17 22.58 35.8 22.58 58.8 0 16.2-1.9 30.5-5.8 42.97-3.9 12.48-8.94 22.48-15.13 30-6.2 7.5-13.9 13.84-23.15 19-9.2 5.12-18.14 8.83-26.8 11.1-8.68 2.3-18.4 4-29.28 5.16 9.9 8.58 14.86 22.1 14.86 40.56v68.2c0 3.24.46 5.86 1.4 7.86.97 2 2.5 3.37 4.58 4.14 2.1.76 4 1.23 5.6 1.4 1.6.2 3.97.3 7 .3h63.97c22.62 0 42-8.04 58.1-24.13 16.1-16.06 24.1-35.43 24.1-58.1V82.3c0-22.7-8.05-42.07-24.13-58.1z"/><path d="M86.8 319.2c-1.34.94-1.15 2.47.57 4.56 1.9 1.9 3.42 2.2 4.57.85 1.33-.9 1.14-2.4-.58-4.5-1.9-1.7-3.42-2-4.57-.8zm-9.43-7.14c-.57 1.33.1 2.48 2 3.42 1.52.96 2.76.77 3.7-.57.58-1.3-.08-2.4-2-3.4-1.9-.5-3.13-.4-3.7.6zm18.28 18.27c-1.72.95-1.72 2.67 0 5.14 1.7 2.48 3.32 3.14 4.85 2 1.7-1.34 1.7-3.15 0-5.43-1.52-2.47-3.14-3.05-4.85-1.7zm10 12.84c-1.7 1.53-1.34 3.33 1.13 5.43 2.28 2.28 4.2 2.57 5.7.85 1.53-1.52 1.15-3.33-1.13-5.42-2.28-2.28-4.2-2.57-5.7-.86z"/></svg>